<?xml version="1.0" encoding="UTF-8"?>
<!DOCTYPE svg PUBLIC "-//W3C//DTD SVG 1.1//EN" "http://www.w3.org/Graphics/SVG/1.1/DTD/svg11.dtd">
<svg xmlns="http://www.w3.org/2000/svg" version="1.1" width="779px" height="100px" style="shape-rendering:geometricPrecision; text-rendering:geometricPrecision; image-rendering:optimizeQuality; fill-rule:evenodd; clip-rule:evenodd" xmlns:xlink="http://www.w3.org/1999/xlink">
<g><path style="opacity:0.151" fill="#170301" d="M 426.5,6.5 C 441.594,5.72875 446.76,12.3954 442,26.5C 434,35.8333 426,45.1667 418,54.5C 417.667,64.1667 417.333,73.8333 417,83.5C 416.853,88.9814 414.353,92.8147 409.5,95C 405.167,95.6667 400.833,95.6667 396.5,95C 394,93.8333 392.167,92 391,89.5C 390.667,78.5 390.333,67.5 390,56.5C 382.377,46.5418 374.377,36.8751 366,27.5C 360.937,10.889 367.103,4.38898 384.5,8C 391.31,14.4779 397.81,21.3112 404,28.5C 409.144,21.7217 414.644,15.2217 420.5,9C 422.611,8.15532 424.611,7.32198 426.5,6.5 Z"/></g>
<g><path style="opacity:0.191" fill="#0c0000" d="M 86.5,7.5 C 108.169,7.33337 129.836,7.50004 151.5,8C 158.998,13.4628 160.331,20.2962 155.5,28.5C 153.972,29.8613 152.305,31.028 150.5,32C 135.572,33.4511 120.572,33.9511 105.5,33.5C 105.5,35.1667 105.5,36.8333 105.5,38.5C 120.17,38.3334 134.837,38.5001 149.5,39C 155.773,40.6843 158.773,44.8509 158.5,51.5C 158.296,57.7611 155.296,61.9278 149.5,64C 134.837,64.4999 120.17,64.6666 105.5,64.5C 105.666,72.5069 105.5,80.5069 105,88.5C 104.14,92.0268 101.973,94.1934 98.5,95C 94.5,95.6667 90.5,95.6667 86.5,95C 83.9427,94.3147 82.1094,92.8147 81,90.5C 79.362,65.5627 79.0287,40.5627 80,15.5C 80.5832,11.4277 82.7499,8.76104 86.5,7.5 Z"/></g>
<g><path style="opacity:0.254" fill="#1a0301" d="M 198.5,7.5 C 203.599,7.17463 208.599,7.67463 213.5,9C 215.049,10.214 216.215,11.714 217,13.5C 217.5,32.4971 217.667,51.4971 217.5,70.5C 232.837,70.3334 248.17,70.5001 263.5,71C 266,72.1667 267.833,74 269,76.5C 270.091,82.0969 269.424,87.4302 267,92.5C 265.745,93.2106 264.579,94.044 263.5,95C 240.745,95.9784 218.078,95.6451 195.5,94C 193.683,92.2002 192.516,90.0336 192,87.5C 191.333,63.5 191.333,39.5 192,15.5C 192.583,11.4277 194.75,8.76104 198.5,7.5 Z"/></g>
<g><path style="opacity:0.159" fill="#150101" d="M 278.5,7.5 C 283.599,7.17463 288.599,7.67463 293.5,9C 301.636,16.1355 309.47,23.6355 317,31.5C 323.468,24.0305 330.302,16.8638 337.5,10C 342.908,7.55644 348.574,6.88978 354.5,8C 356.624,9.12173 358.457,10.6217 360,12.5C 361.638,37.4373 361.971,62.4373 361,87.5C 358.804,93.4422 354.47,96.4422 348,96.5C 341.413,96.5577 337.08,93.5577 335,87.5C 334.667,76.1667 334.333,64.8333 334,53.5C 322.333,68.1667 310.667,68.1667 299,53.5C 298.94,65.9034 298.273,78.2368 297,90.5C 295.457,92.3783 293.624,93.8783 291.5,95C 287.167,95.6667 282.833,95.6667 278.5,95C 275.337,93.5202 273.504,91.0202 273,87.5C 272.333,63.5 272.333,39.5 273,15.5C 273.625,11.8907 275.458,9.22405 278.5,7.5 Z"/></g>
<g><path style="opacity:0.185" fill="#150201" d="M 452.5,7.5 C 457.599,7.17463 462.599,7.67463 467.5,9C 474.988,16.6539 482.654,24.1539 490.5,31.5C 497.291,24.2078 504.291,17.0411 511.5,10C 518.447,6.53859 525.281,6.70526 532,10.5C 532.862,12.087 533.529,13.7536 534,15.5C 534.667,39.8333 534.667,64.1667 534,88.5C 531.639,94.1883 527.306,96.855 521,96.5C 515.096,96.5565 511.096,93.8899 509,88.5C 508.667,76.5 508.333,64.5 508,52.5C 496.796,68.1195 485.129,68.4528 473,53.5C 472.667,64.5 472.333,75.5 472,86.5C 470.406,93.4236 466.073,96.4236 459,95.5C 452.378,96.3632 448.045,93.6965 446,87.5C 445.333,63.5 445.333,39.5 446,15.5C 446.583,11.4277 448.75,8.76104 452.5,7.5 Z"/></g>
<g><path style="opacity:0.203" fill="#1d0501" d="M 568.5,41.5 C 568.5,42.1667 568.5,42.8333 568.5,43.5C 567.549,44.9187 567.216,46.5853 567.5,48.5C 566.523,51.2869 566.19,54.2869 566.5,57.5C 565.932,68.3966 565.098,79.3966 564,90.5C 562.773,92.7261 560.939,94.2261 558.5,95C 554.167,95.6667 549.833,95.6667 545.5,95C 541.973,92.784 539.806,89.6173 539,85.5C 538.333,62.8333 538.333,40.1667 539,17.5C 540.278,9.56775 544.945,6.23442 553,7.5C 559.045,6.51734 563.045,8.85068 565,14.5C 565.333,24.5 565.667,34.5 566,44.5C 566.377,43.0577 567.21,42.0577 568.5,41.5 Z"/></g>
<g><path style="opacity:0.19" fill="#180301" d="M 566.5,57.5 C 566.19,54.2869 566.523,51.2869 567.5,48.5C 567.336,51.1873 567.503,53.854 568,56.5C 568.383,57.056 568.883,57.3893 569.5,57.5C 578.456,69.1244 587.789,80.4578 597.5,91.5C 599.117,92.9723 601.117,93.639 603.5,93.5C 605.045,93.4892 606.378,93.1558 607.5,92.5C 609.853,91.6597 611.853,90.3264 613.5,88.5C 614.645,84.6888 614.812,80.6888 614,76.5C 613.617,75.944 613.117,75.6107 612.5,75.5C 610.57,71.8998 607.903,68.8998 604.5,66.5C 603.5,64.8333 602.167,63.5 600.5,62.5C 599.243,59.5726 597.243,57.2393 594.5,55.5C 593.542,54.0384 592.376,52.7051 591,51.5C 590.333,50.8333 590.333,50.1667 591,49.5C 598.736,41.2702 606.236,32.9369 613.5,24.5C 614.222,24.0825 614.722,23.4158 615,22.5C 616.407,17.5994 615.24,13.5994 611.5,10.5C 604.889,7.02838 599.222,8.02838 594.5,13.5C 591.427,15.5691 589.094,18.2358 587.5,21.5C 585.413,22.5846 584.08,24.2512 583.5,26.5C 580.757,28.2393 578.757,30.5726 577.5,33.5C 575.413,34.5846 574.08,36.2512 573.5,38.5C 571.413,39.5846 570.08,41.2512 569.5,43.5C 569.167,43.5 568.833,43.5 568.5,43.5C 568.5,42.8333 568.5,42.1667 568.5,41.5C 569.75,39.0676 571.25,36.7343 573,34.5C 580.128,25.7032 587.628,17.2032 595.5,9C 614.228,3.72664 620.728,10.2266 615,28.5C 608.167,36 601.333,43.5 594.5,51C 601.333,58.5 608.167,66 615,73.5C 621.244,92.2577 614.744,99.0911 595.5,94C 584.493,82.7742 574.826,70.6075 566.5,57.5 Z"/></g>
<g><path style="opacity:0.163" fill="#170301" d="M 627.5,7.5 C 633.061,6.80235 638.227,7.80235 643,10.5C 650.527,24.2212 657.527,38.2212 664,52.5C 670.667,39.1667 677.333,25.8333 684,12.5C 685.167,11.3333 686.333,10.1667 687.5,9C 701.706,3.99119 708.54,8.82453 708,23.5C 697.427,47.1455 685.927,70.3121 673.5,93C 665.271,97.9806 658.104,96.814 652,89.5C 640.755,67.4244 630.088,45.0911 620,22.5C 618.808,15.5509 621.308,10.5509 627.5,7.5 Z"/></g>
<g><path style="opacity:1" fill="#fb031c" d="M 387.5,14.5 C 388.757,17.4274 390.757,19.7607 393.5,21.5C 394.08,23.7488 395.413,25.4154 397.5,26.5C 398.677,30.4125 401.011,32.0792 404.5,31.5C 411.508,24.4917 418.174,17.1584 424.5,9.5C 429.407,7.89929 434.074,8.56595 438.5,11.5C 439.726,15.8445 439.726,20.1779 438.5,24.5C 430.833,33.8333 423.167,43.1667 415.5,52.5C 414.833,52.8333 414.167,53.1667 413.5,53.5C 412.749,65.0172 412.082,76.6839 411.5,88.5C 409.286,91.8516 406.119,93.1849 402,92.5C 400.167,92.1667 398.333,91.8333 396.5,91.5C 395.812,90.1451 394.812,89.1451 393.5,88.5C 392.895,76.6913 392.228,65.0246 391.5,53.5C 383.429,44.1023 375.762,34.4356 368.5,24.5C 366.562,19.3207 367.228,14.6541 370.5,10.5C 377.19,7.05225 382.857,8.38559 387.5,14.5 Z"/></g>
<g><path style="opacity:1" fill="#fc031c" d="M 151.5,10.5 C 155.014,15.9386 155.347,21.6053 152.5,27.5C 150.299,28.5664 147.965,29.233 145.5,29.5C 131.167,29.5 116.833,29.5 102.5,29.5C 102.5,33.1667 102.5,36.8333 102.5,40.5C 117.167,40.5 131.833,40.5 146.5,40.5C 149.119,40.9255 151.453,41.9255 153.5,43.5C 154.162,47.4659 154.495,51.4659 154.5,55.5C 153.5,56.8333 152.5,58.1667 151.5,59.5C 149.883,60.038 148.216,60.3713 146.5,60.5C 131.833,60.5 117.167,60.5 102.5,60.5C 102.5,68.8333 102.5,77.1667 102.5,85.5C 102.5,86.1667 102.5,86.8333 102.5,87.5C 100.833,88.5 99.5,89.8333 98.5,91.5C 98.1667,91.5 97.8333,91.5 97.5,91.5C 94.5701,92.299 91.5701,92.6323 88.5,92.5C 86.2512,91.9202 84.5846,90.5869 83.5,88.5C 83.5,87.8333 83.5,87.1667 83.5,86.5C 83.1669,62.1575 83.5003,37.8242 84.5,13.5C 85.4252,12.6431 86.0919,11.6431 86.5,10.5C 86.9175,9.77842 87.5842,9.27842 88.5,9C 108.167,8.33333 127.833,8.33333 147.5,9C 148.901,9.4101 150.234,9.9101 151.5,10.5 Z"/></g>
<g><path style="opacity:1" fill="#fc031c" d="M 213.5,12.5 C 214.451,32.1396 214.784,51.8063 214.5,71.5C 228.661,72.3312 242.994,72.8312 257.5,73C 259.518,73.5046 261.518,74.0046 263.5,74.5C 264.458,74.9528 265.292,75.6195 266,76.5C 266.667,80.1667 266.667,83.8333 266,87.5C 264.457,89.3783 262.624,90.8783 260.5,92C 239.5,92.6667 218.5,92.6667 197.5,92C 196.944,91.6174 196.611,91.1174 196.5,90.5C 196.291,89.0783 195.791,87.745 195,86.5C 194.333,62.5 194.333,38.5 195,14.5C 196.039,13.7562 196.539,12.7562 196.5,11.5C 202.279,7.36311 207.946,7.69644 213.5,12.5 Z"/></g>
<g><path style="opacity:1" fill="#fa031c" d="M 355.5,11.5 C 355.461,12.7562 355.961,13.7562 357,14.5C 357.5,38.1643 357.667,61.831 357.5,85.5C 357.378,88.2921 356.044,90.2921 353.5,91.5C 349.5,92.8333 345.5,92.8333 341.5,91.5C 339.457,90.4206 338.124,88.754 337.5,86.5C 337.833,73.15 337.499,59.8167 336.5,46.5C 335.893,46.6236 335.56,46.9569 335.5,47.5C 334.833,47.5 334.5,47.8333 334.5,48.5C 330.702,51.7961 327.036,55.2961 323.5,59C 318.994,61.8141 314.327,62.1474 309.5,60C 305.296,55.9644 301.296,51.7978 297.5,47.5C 297.5,46.8333 297.167,46.5 296.5,46.5C 296.44,45.9569 296.107,45.6236 295.5,45.5C 294.501,59.1504 294.167,72.8171 294.5,86.5C 292.665,91.1734 289.165,93.1734 284,92.5C 279.035,93.3539 276.202,91.3539 275.5,86.5C 275.333,62.4977 275.5,38.4977 276,14.5C 277.039,13.7562 277.539,12.7562 277.5,11.5C 282.192,7.69624 287.192,7.52958 292.5,11C 300.348,19.0145 308.348,26.8479 316.5,34.5C 324.986,26.5145 333.319,18.3478 341.5,10C 346.482,7.83172 351.149,8.33172 355.5,11.5 Z"/></g>
<g><path style="opacity:1" fill="#fb031c" d="M 529.5,12.5 C 530.481,37.4553 530.814,62.4553 530.5,87.5C 530.5,87.8333 530.5,88.1667 530.5,88.5C 526.532,91.9264 521.865,93.2597 516.5,92.5C 513.833,91.8333 512.167,90.1667 511.5,87.5C 511.833,73.4841 511.499,59.4841 510.5,45.5C 509.893,45.6236 509.56,45.9569 509.5,46.5C 508.833,46.5 508.5,46.8333 508.5,47.5C 504.668,50.4989 501.335,53.9989 498.5,58C 492.401,62.5223 486.401,62.5223 480.5,58C 477.999,54.3329 474.999,51.1662 471.5,48.5C 471.5,47.8333 471.167,47.5 470.5,47.5C 470.44,46.9569 470.107,46.6236 469.5,46.5C 468.501,59.1492 468.168,71.8158 468.5,84.5C 466.311,91.9463 461.311,94.613 453.5,92.5C 451.5,91.8333 450.167,90.5 449.5,88.5C 448.167,63.1667 448.167,37.8333 449.5,12.5C 454.326,7.83849 459.659,7.33849 465.5,11C 473.348,19.0145 481.348,26.8479 489.5,34.5C 497.652,26.8479 505.652,19.0145 513.5,11C 519.341,7.33849 524.674,7.83849 529.5,12.5 Z"/></g>
<g><path style="opacity:1" fill="#fa031c" d="M 542.5,86.5 C 542.333,62.4977 542.5,38.4977 543,14.5C 544.039,13.7562 544.539,12.7562 544.5,11.5C 550.73,7.12383 556.564,7.7905 562,13.5C 562.667,38.1667 562.667,62.8333 562,87.5C 557.509,92.2591 552.009,93.7591 545.5,92C 543.393,90.7365 542.393,88.9032 542.5,86.5 Z"/></g>
<g><path style="opacity:1" fill="#fa031c" d="M 611.5,10.5 C 613.299,14.9032 613.966,19.5698 613.5,24.5C 606.236,32.9369 598.736,41.2702 591,49.5C 590.333,50.1667 590.333,50.8333 591,51.5C 592.376,52.7051 593.542,54.0384 594.5,55.5C 595.757,58.4274 597.757,60.7607 600.5,62.5C 602.167,63.5 603.5,64.8333 604.5,66.5C 606.43,70.1002 609.097,73.1002 612.5,75.5C 613.373,79.7685 613.706,84.1018 613.5,88.5C 611.853,90.3264 609.853,91.6597 607.5,92.5C 604.14,92.3841 600.807,92.0508 597.5,91.5C 587.789,80.4578 578.456,69.1244 569.5,57.5C 568.238,52.8188 568.238,48.1521 569.5,43.5C 571.587,42.4154 572.92,40.7488 573.5,38.5C 575.587,37.4154 576.92,35.7488 577.5,33.5C 580.243,31.7607 582.243,29.4274 583.5,26.5C 584.08,24.2512 585.413,22.5846 587.5,21.5C 590.573,19.4309 592.906,16.7642 594.5,13.5C 599.222,8.02838 604.889,7.02838 611.5,10.5 Z"/></g>
<g><path style="opacity:1" fill="#fa031c" d="M 638.5,10.5 C 639.443,13.4292 641.11,15.7625 643.5,17.5C 645.341,19.8485 646.674,22.5152 647.5,25.5C 650.843,35.8505 655.509,45.5171 661.5,54.5C 661.5,55.8333 661.5,57.1667 661.5,58.5C 662.833,58.5 664.167,58.5 665.5,58.5C 667.654,55.1813 668.987,51.5147 669.5,47.5C 671.008,45.8185 672.008,43.8185 672.5,41.5C 672.328,40.5084 672.662,39.8417 673.5,39.5C 678.239,32.0198 681.906,24.0198 684.5,15.5C 686.5,14.1667 688.167,12.5 689.5,10.5C 693.689,7.74928 697.689,8.08261 701.5,11.5C 702.71,13.5516 703.71,15.7182 704.5,18C 704.057,19.825 703.723,21.6583 703.5,23.5C 693.599,45.3062 683.099,66.9729 672,88.5C 667.584,92.9532 662.417,93.7865 656.5,91C 655.944,90.6174 655.611,90.1174 655.5,89.5C 648.535,72.9035 640.535,56.9035 631.5,41.5C 629.424,36.3489 627.09,31.3489 624.5,26.5C 622.998,22.6575 622.332,18.6575 622.5,14.5C 626.586,8.29512 631.919,6.96179 638.5,10.5 Z"/></g>
<g><path style="opacity:0.107" fill="#150101" d="M 168.5,7.5 C 174.105,6.90814 179.439,7.74147 184.5,10C 186.562,12.0676 187.728,14.5676 188,17.5C 188.667,39.8333 188.667,62.1667 188,84.5C 187.148,92.5152 182.648,96.5152 174.5,96.5C 167.862,96.7767 163.695,93.7767 162,87.5C 161.333,63.5 161.333,39.5 162,15.5C 163.277,12.0618 165.443,9.39512 168.5,7.5 Z"/></g>
<g><path style="opacity:1" fill="#fb031c" d="M 183.5,12.5 C 184.628,37.143 184.795,61.8097 184,86.5C 182.64,89.0226 180.807,91.0226 178.5,92.5C 175.15,92.665 171.817,92.4983 168.5,92C 167.29,90.9609 166.29,89.7942 165.5,88.5C 164.167,63.1667 164.167,37.8333 165.5,12.5C 166.058,11.2101 167.058,10.3768 168.5,10C 173.957,8.776 178.957,9.60933 183.5,12.5 Z"/></g>
<g><path style="opacity:0.973" fill="#a10112" d="M 424.5,9.5 C 418.174,17.1584 411.508,24.4917 404.5,31.5C 407.831,26.1998 411.664,21.1998 416,16.5C 418.436,13.5532 421.269,11.2199 424.5,9.5 Z"/></g>
<g><path style="opacity:0.882" fill="#8d0111" d="M 689.5,10.5 C 688.167,12.5 686.5,14.1667 684.5,15.5C 685.167,12.8333 686.833,11.1667 689.5,10.5 Z"/></g>
<g><path style="opacity:0.992" fill="#b70215" d="M 638.5,10.5 C 641.323,11.9923 642.99,14.3257 643.5,17.5C 641.11,15.7625 639.443,13.4292 638.5,10.5 Z"/></g>
<g><path style="opacity:0.984" fill="#9b0112" d="M 387.5,14.5 C 390.243,16.2393 392.243,18.5726 393.5,21.5C 390.757,19.7607 388.757,17.4274 387.5,14.5 Z"/></g>
<g><path style="opacity:0.976" fill="#a90113" d="M 594.5,13.5 C 592.906,16.7642 590.573,19.4309 587.5,21.5C 589.094,18.2358 591.427,15.5691 594.5,13.5 Z"/></g>
<g><path style="opacity:0.958" fill="#ae0113" d="M 370.5,10.5 C 367.228,14.6541 366.562,19.3207 368.5,24.5C 367.883,24.3893 367.383,24.056 367,23.5C 366.333,19.8333 366.333,16.1667 367,12.5C 367.816,11.1772 368.983,10.5106 370.5,10.5 Z"/></g>
<g><path style="opacity:1" fill="#9e0111" d="M 438.5,11.5 C 439.997,13.2897 440.664,15.4563 440.5,18C 440.664,20.5437 439.997,22.7103 438.5,24.5C 439.726,20.1779 439.726,15.8445 438.5,11.5 Z"/></g>
<g><path style="opacity:0.976" fill="#980112" d="M 611.5,10.5 C 615.24,13.5994 616.407,17.5994 615,22.5C 614.722,23.4158 614.222,24.0825 613.5,24.5C 613.966,19.5698 613.299,14.9032 611.5,10.5 Z"/></g>
<g><path style="opacity:0.686" fill="#63000b" d="M 622.5,14.5 C 622.332,18.6575 622.998,22.6575 624.5,26.5C 622.233,24.4074 620.9,21.7407 620.5,18.5C 620.668,16.8295 621.335,15.4961 622.5,14.5 Z"/></g>
<g><path style="opacity:0.969" fill="#b30114" d="M 701.5,11.5 C 705.979,14.8513 706.646,18.8513 703.5,23.5C 703.723,21.6583 704.057,19.825 704.5,18C 703.71,15.7182 702.71,13.5516 701.5,11.5 Z"/></g>
<g><path style="opacity:1" fill="#db0318" d="M 86.5,10.5 C 86.0919,11.6431 85.4252,12.6431 84.5,13.5C 83.5003,37.8242 83.1669,62.1575 83.5,86.5C 82.5024,62.6725 82.1691,38.6725 82.5,14.5C 82.8333,12.1667 84.1667,10.8333 86.5,10.5 Z"/></g>
<g><path style="opacity:0.91" fill="#950111" d="M 165.5,12.5 C 164.167,37.8333 164.167,63.1667 165.5,88.5C 164.883,88.3893 164.383,88.056 164,87.5C 163.333,62.8333 163.333,38.1667 164,13.5C 164.383,12.944 164.883,12.6107 165.5,12.5 Z"/></g>
<g><path style="opacity:0.851" fill="#63030b" d="M 183.5,12.5 C 184.222,12.9175 184.722,13.5842 185,14.5C 185.833,39.5067 185.666,64.5067 184.5,89.5C 183.049,91.5589 181.049,92.5589 178.5,92.5C 180.807,91.0226 182.64,89.0226 184,86.5C 184.795,61.8097 184.628,37.143 183.5,12.5 Z"/></g>
<g><path style="opacity:0.902" fill="#73000c" d="M 82.5,14.5 C 82.1691,38.6725 82.5024,62.6725 83.5,86.5C 83.5,87.1667 83.5,87.8333 83.5,88.5C 82.8826,88.3893 82.3826,88.056 82,87.5C 81.1701,62.9965 81.3368,38.6632 82.5,14.5 Z"/></g>
<g><path style="opacity:0.996" fill="#83010f" d="M 151.5,10.5 C 154.876,12.068 156.209,14.7347 155.5,18.5C 155.86,22.0891 154.86,25.0891 152.5,27.5C 155.347,21.6053 155.014,15.9386 151.5,10.5 Z"/></g>
<g><path style="opacity:0.922" fill="#a20111" d="M 196.5,11.5 C 196.539,12.7562 196.039,13.7562 195,14.5C 194.333,38.5 194.333,62.5 195,86.5C 195.791,87.745 196.291,89.0783 196.5,90.5C 195.21,89.9423 194.377,88.9423 194,87.5C 193.333,62.8333 193.333,38.1667 194,13.5C 194.708,12.6195 195.542,11.9528 196.5,11.5 Z"/></g>
<g><path style="opacity:0.929" fill="#ab0212" d="M 544.5,11.5 C 544.539,12.7562 544.039,13.7562 543,14.5C 542.5,38.4977 542.333,62.4977 542.5,86.5C 541.337,62.3368 541.17,38.0035 542,13.5C 542.708,12.6195 543.542,11.9528 544.5,11.5 Z"/></g>
<g><path style="opacity:0.984" fill="#9a0212" d="M 393.5,21.5 C 395.587,22.5846 396.92,24.2512 397.5,26.5C 395.413,25.4154 394.08,23.7488 393.5,21.5 Z"/></g>
<g><path style="opacity:0.988" fill="#990112" d="M 397.5,26.5 C 399.573,28.5798 401.907,30.2464 404.5,31.5C 401.011,32.0792 398.677,30.4125 397.5,26.5 Z"/></g>
<g><path style="opacity:0.984" fill="#8d0111" d="M 647.5,25.5 C 652.948,34.731 657.615,44.3977 661.5,54.5C 655.509,45.5171 650.843,35.8505 647.5,25.5 Z"/></g>
<g><path style="opacity:0.875" fill="#8e0011" d="M 684.5,15.5 C 681.906,24.0198 678.239,32.0198 673.5,39.5C 676.094,30.9802 679.761,22.9802 684.5,15.5 Z"/></g>
<g><path style="opacity:0.949" fill="#5b000b" d="M 145.5,29.5 C 131.677,30.4958 117.677,30.8291 103.5,30.5C 103.5,33.5 103.5,36.5 103.5,39.5C 118.01,39.1707 132.343,39.5041 146.5,40.5C 131.833,40.5 117.167,40.5 102.5,40.5C 102.5,36.8333 102.5,33.1667 102.5,29.5C 116.833,29.5 131.167,29.5 145.5,29.5 Z"/></g>
<g><path style="opacity:0.941" fill="#990111" d="M 583.5,26.5 C 582.243,29.4274 580.243,31.7607 577.5,33.5C 578.757,30.5726 580.757,28.2393 583.5,26.5 Z"/></g>
<g><path style="opacity:0.882" fill="#900111" d="M 577.5,33.5 C 576.92,35.7488 575.587,37.4154 573.5,38.5C 574.08,36.2512 575.413,34.5846 577.5,33.5 Z"/></g>
<g><path style="opacity:0.831" fill="#8d0110" d="M 449.5,12.5 C 448.167,37.8333 448.167,63.1667 449.5,88.5C 448.883,88.3893 448.383,88.056 448,87.5C 447.333,62.8333 447.333,38.1667 448,13.5C 448.383,12.944 448.883,12.6107 449.5,12.5 Z"/></g>
<g><path style="opacity:0.95" fill="#bf0316" d="M 529.5,12.5 C 530.117,12.6107 530.617,12.944 531,13.5C 531.83,38.3368 531.663,63.0034 530.5,87.5C 530.814,62.4553 530.481,37.4553 529.5,12.5 Z"/></g>
<g><path style="opacity:0.902" fill="#970111" d="M 573.5,38.5 C 572.92,40.7488 571.587,42.4154 569.5,43.5C 570.08,41.2512 571.413,39.5846 573.5,38.5 Z"/></g>
<g><path style="opacity:0.843" fill="#7f0110" d="M 631.5,41.5 C 640.535,56.9035 648.535,72.9035 655.5,89.5C 646.465,74.0965 638.465,58.0965 631.5,41.5 Z"/></g>
<g><path style="opacity:0.808" fill="#5c000a" d="M 213.5,12.5 C 214.222,12.9175 214.722,13.5842 215,14.5C 215.5,33.4971 215.667,52.4971 215.5,71.5C 215.167,71.5 214.833,71.5 214.5,71.5C 214.784,51.8063 214.451,32.1396 213.5,12.5 Z"/></g>
<g><path style="opacity:0.839" fill="#860110" d="M 672.5,41.5 C 672.008,43.8185 671.008,45.8185 669.5,47.5C 669.031,44.6067 670.031,42.6067 672.5,41.5 Z"/></g>
<g><path style="opacity:0.954" fill="#b00114" d="M 296.5,46.5 C 295.505,59.3226 295.171,72.3226 295.5,85.5C 295.5,86.1667 295.167,86.5 294.5,86.5C 294.167,72.8171 294.501,59.1504 295.5,45.5C 296.107,45.6236 296.44,45.9569 296.5,46.5 Z"/></g>
<g><path style="opacity:0.961" fill="#7a010e" d="M 153.5,43.5 C 155.017,45.4621 155.684,47.7954 155.5,50.5C 155.493,52.3693 155.16,54.036 154.5,55.5C 154.495,51.4659 154.162,47.4659 153.5,43.5 Z"/></g>
<g><path style="opacity:0.9" fill="#990111" d="M 568.5,43.5 C 568.833,43.5 569.167,43.5 569.5,43.5C 568.238,48.1521 568.238,52.8188 569.5,57.5C 568.883,57.3893 568.383,57.056 568,56.5C 567.503,53.854 567.336,51.1873 567.5,48.5C 567.216,46.5853 567.549,44.9187 568.5,43.5 Z"/></g>
<g><path style="opacity:0.734" fill="#420007" d="M 296.5,46.5 C 297.167,46.5 297.5,46.8333 297.5,47.5C 296.833,60.1667 296.167,72.8333 295.5,85.5C 295.171,72.3226 295.505,59.3226 296.5,46.5 Z"/></g>
<g><path style="opacity:0.836" fill="#81000e" d="M 335.5,47.5 C 335.56,46.9569 335.893,46.6236 336.5,46.5C 337.499,59.8167 337.833,73.15 337.5,86.5C 336.662,86.1583 336.328,85.4916 336.5,84.5C 336.829,71.9887 336.495,59.6554 335.5,47.5 Z"/></g>
<g><path style="opacity:0.867" fill="#78010d" d="M 470.5,47.5 C 469.833,59.8333 469.167,72.1667 468.5,84.5C 468.168,71.8158 468.501,59.1492 469.5,46.5C 470.107,46.6236 470.44,46.9569 470.5,47.5 Z"/></g>
<g><path style="opacity:0.652" fill="#580009" d="M 508.5,47.5 C 508.5,46.8333 508.833,46.5 509.5,46.5C 510.495,59.3226 510.829,72.3226 510.5,85.5C 509.833,72.8333 509.167,60.1667 508.5,47.5 Z"/></g>
<g><path style="opacity:0.427" fill="#2d0004" d="M 334.5,48.5 C 334.5,47.8333 334.833,47.5 335.5,47.5C 336.495,59.6554 336.829,71.9887 336.5,84.5C 335.833,72.5 335.167,60.5 334.5,48.5 Z"/></g>
<g><path style="opacity:0.549" fill="#290404" d="M 470.5,47.5 C 471.167,47.5 471.5,47.8333 471.5,48.5C 470.944,61.7289 470.111,75.0622 469,88.5C 464.746,93.4743 459.58,94.8076 453.5,92.5C 461.311,94.613 466.311,91.9463 468.5,84.5C 469.167,72.1667 469.833,59.8333 470.5,47.5 Z"/></g>
<g><path style="opacity:0.98" fill="#b60214" d="M 669.5,47.5 C 668.987,51.5147 667.654,55.1813 665.5,58.5C 664.167,58.5 662.833,58.5 661.5,58.5C 661.5,57.1667 661.5,55.8333 661.5,54.5C 662.158,55.3984 662.824,56.3984 663.5,57.5C 665.522,54.1125 667.522,50.7792 669.5,47.5 Z"/></g>
<g><path style="opacity:0.812" fill="#460007" d="M 415.5,52.5 C 414.876,63.6291 414.209,74.6291 413.5,85.5C 413.5,74.8333 413.5,64.1667 413.5,53.5C 414.167,53.1667 414.833,52.8333 415.5,52.5 Z"/></g>
<g><path style="opacity:0.953" fill="#be0115" d="M 509.5,46.5 C 509.56,45.9569 509.893,45.6236 510.5,45.5C 511.499,59.4841 511.833,73.4841 511.5,87.5C 510.662,87.1583 510.328,86.4916 510.5,85.5C 510.829,72.3226 510.495,59.3226 509.5,46.5 Z"/></g>
<g><path style="opacity:0.969" fill="#950111" d="M 594.5,55.5 C 597.243,57.2393 599.243,59.5726 600.5,62.5C 597.757,60.7607 595.757,58.4274 594.5,55.5 Z"/></g>
<g><path style="opacity:0.927" fill="#a60112" d="M 146.5,60.5 C 132.343,61.4959 118.01,61.8293 103.5,61.5C 103.5,69.5 103.5,77.5 103.5,85.5C 103.167,85.5 102.833,85.5 102.5,85.5C 102.5,77.1667 102.5,68.8333 102.5,60.5C 117.167,60.5 131.833,60.5 146.5,60.5 Z"/></g>
<g><path style="opacity:0.976" fill="#ba0215" d="M 277.5,11.5 C 277.539,12.7562 277.039,13.7562 276,14.5C 275.5,38.4977 275.333,62.4977 275.5,86.5C 274.337,62.3368 274.17,38.0035 275,13.5C 275.708,12.6195 276.542,11.9528 277.5,11.5 Z"/></g>
<g><path style="opacity:1" fill="#b40214" d="M 413.5,53.5 C 413.5,64.1667 413.5,74.8333 413.5,85.5C 413.068,86.7095 412.401,87.7095 411.5,88.5C 412.082,76.6839 412.749,65.0172 413.5,53.5 Z"/></g>
<g><path style="opacity:0.792" fill="#2a0104" d="M 151.5,59.5 C 150.653,60.9663 149.32,61.7996 147.5,62C 133.171,62.4999 118.837,62.6666 104.5,62.5C 104.825,70.3516 104.492,78.0182 103.5,85.5C 103.5,77.5 103.5,69.5 103.5,61.5C 118.01,61.8293 132.343,61.4959 146.5,60.5C 148.216,60.3713 149.883,60.038 151.5,59.5 Z"/></g>
<g><path style="opacity:0.901" fill="#89010f" d="M 355.5,11.5 C 356.458,11.9528 357.292,12.6195 358,13.5C 358.83,37.6702 358.663,61.6702 357.5,85.5C 357.667,61.831 357.5,38.1643 357,14.5C 355.961,13.7562 355.461,12.7562 355.5,11.5 Z"/></g>
<g><path style="opacity:0.969" fill="#950111" d="M 604.5,66.5 C 607.903,68.8998 610.57,71.8998 612.5,75.5C 609.097,73.1002 606.43,70.1002 604.5,66.5 Z"/></g>
<g><path style="opacity:0.902" fill="#cb0216" d="M 214.5,71.5 C 214.833,71.5 215.167,71.5 215.5,71.5C 230.504,71.3334 245.504,71.5001 260.5,72C 261.942,72.3768 262.942,73.2101 263.5,74.5C 261.518,74.0046 259.518,73.5046 257.5,73C 242.994,72.8312 228.661,72.3312 214.5,71.5 Z"/></g>
<g><path style="opacity:0.967" fill="#af0113" d="M 612.5,75.5 C 613.117,75.6107 613.617,75.944 614,76.5C 614.812,80.6888 614.645,84.6888 613.5,88.5C 613.706,84.1018 613.373,79.7685 612.5,75.5 Z"/></g>
<g><path style="opacity:0.596" fill="#57010a" d="M 391.5,53.5 C 392.228,65.0246 392.895,76.6913 393.5,88.5C 392.778,88.0825 392.278,87.4158 392,86.5C 391.5,75.505 391.333,64.505 391.5,53.5 Z"/></g>
<g><path style="opacity:0.898" fill="#5d010c" d="M 102.5,87.5 C 102.167,89.8333 100.833,91.1667 98.5,91.5C 99.5,89.8333 100.833,88.5 102.5,87.5 Z"/></g>
<g><path style="opacity:0.992" fill="#53010a" d="M 97.5,91.5 C 97.3893,92.1174 97.056,92.6174 96.5,93C 93.633,93.8007 90.9664,93.6341 88.5,92.5C 91.5701,92.6323 94.5701,92.299 97.5,91.5 Z"/></g>
<g><path style="opacity:1" fill="#520209" d="M 341.5,91.5 C 345.5,92.8333 349.5,92.8333 353.5,91.5C 353.389,92.1174 353.056,92.6174 352.5,93C 349.167,93.6667 345.833,93.6667 342.5,93C 341.944,92.6174 341.611,92.1174 341.5,91.5 Z"/></g>
<g><path style="opacity:1" fill="#4d0409" d="M 530.5,88.5 C 529.976,91.1878 528.309,92.6878 525.5,93C 522.304,93.8045 519.304,93.6378 516.5,92.5C 521.865,93.2597 526.532,91.9264 530.5,88.5 Z"/></g>
<g><path style="opacity:0.947" fill="#5c010c" d="M 597.5,91.5 C 600.807,92.0508 604.14,92.3841 607.5,92.5C 606.378,93.1558 605.045,93.4892 603.5,93.5C 601.117,93.639 599.117,92.9723 597.5,91.5 Z"/></g>
</svg>
